HIERARCHY
ROOT Hips
{
  OFFSET 279.157 85.6768 304.565
  CHANNELS 6 Xposition Yposition Zposition Zrotation Xrotation Yrotation
  JOINT LeftUpLeg
  {
    OFFSET 8.64259 1.95398 -2.38835
    CHANNELS 3 Zrotation Xrotation Yrotation
    JOINT LeftLeg
    {
      OFFSET 43.7702 0 0
      CHANNELS 3 Zrotation Xrotation Yrotation
      JOINT LeftFoot
      {
        OFFSET 40.6238 0 0
        CHANNELS 3 Zrotation Xrotation Yrotation
        JOINT LeftToeBase
        {
          OFFSET 12.7242 0 0
          CHANNELS 3 Zrotation Xrotation Yrotation
          End Site
          {
            OFFSET 0 0 0
          }
        }
      }
    }
  }
  JOINT RightUpLeg
  {
    OFFSET -8.2249 1.95398 -2.59336
    CHANNELS 3 Zrotation Xrotation Yrotation
    JOINT RightLeg
    {
      OFFSET 43.5653 0 0
      CHANNELS 3 Zrotation Xrotation Yrotation
      JOINT RightFoot
      {
        OFFSET 40.6238 0 0
        CHANNELS 3 Zrotation Xrotation Yrotation
        JOINT RightToeBase
        {
          OFFSET 12.7242 0 0
          CHANNELS 3 Zrotation Xrotation Yrotation
          End Site
          {
            OFFSET 0 0 0
          }
        }
      }
    }
  }
  JOINT Spine
  {
    OFFSET 0.165834 0.87714 6.61349
    CHANNELS 3 Zrotation Xrotation Yrotation
    JOINT Spine1
    {
      OFFSET 7.38963 1.71661e-005 0
      CHANNELS 3 Zrotation Xrotation Yrotation
      JOINT Spine2
      {
        OFFSET 11.9445 1.14441e-005 0
        CHANNELS 3 Zrotation Xrotation Yrotation
        JOINT Spine3
        {
          OFFSET 14.7254 4.19617e-005 0
          CHANNELS 3 Zrotation Xrotation Yrotation
          JOINT Spine4
          {
            OFFSET 10.9679 0 0
            CHANNELS 3 Zrotation Xrotation Yrotation
            JOINT RightShoulder
            {
              OFFSET 2.46616 -1.6653 3.69651
              CHANNELS 3 Zrotation Xrotation Yrotation
              JOINT RightArm
              {
                OFFSET 13.0012 0 0
                CHANNELS 3 Zrotation Xrotation Yrotation
                JOINT RightForeArm
                {
                  OFFSET 28.7848 1.52588e-005 0
                  CHANNELS 3 Zrotation Xrotation Yrotation
                  JOINT RightHand
                  {
                    OFFSET 26.5688 1.52588e-005 0
                    CHANNELS 3 Zrotation Xrotation Yrotation
                    End Site
                    {
                      OFFSET 0 0 0
                    }
                  }
                }
              }
            }
            JOINT LeftShoulder
            {
              OFFSET 2.38034 -1.29275 -3.7523
              CHANNELS 3 Zrotation Xrotation Yrotation
              JOINT LeftArm
              {
                OFFSET 16.3182 6.10351e-005 0
                CHANNELS 3 Zrotation Xrotation Yrotation
                JOINT LeftForeArm
                {
                  OFFSET 27.0901 0 0
                  CHANNELS 3 Zrotation Xrotation Yrotation
                  JOINT LeftHand
                  {
                    OFFSET 24.5451 1.52588e-005 0
                    CHANNELS 3 Zrotation Xrotation Yrotation
                    End Site
                    {
                      OFFSET 0 0 0
                    }
                  }
                }
              }
            }
            JOINT Neck
            {
              OFFSET 5.0226 -0.0266342 0
              CHANNELS 3 Zrotation Xrotation Yrotation
              JOINT Head
              {
                OFFSET 6.69364 2.86102e-005 0
                CHANNELS 3 Zrotation Xrotation Yrotation
                End Site
                {
                  OFFSET 0 0 0
                }
              }
            }
          }
        }
      }
    }
  }
}
MOTION
Frames:	18
Frame Time:	0.0416667
7.51703 102.084 -5.19567 -102.451 -49.3246 -100.036 -174.654 -4.2645 90.1879 -12.0954 8.82443 1.11008 68.5725 5.00049 -3.98653 18.7931 -8.71442 9.12695 173.582 -5.18372 88.071 -11.7469 -7.81929 -1.17415 65.2983 -2.96699 0.901167 28.5245 -0.491802 4.43877 0.184686 7.89742 -90.0738 11.0793 0.333436 -0.179147 -0.591652 0.325211 -0.193643 -23.1271 0.37184 -0.0706575 -3.11449 0.371834 -0.0706526 86.1477 -32.2935 -113.219 39.7179 -10.7283 -4.04211 3.1676 -22.3775 -13.6712 -25.5263 -0.491256 -8.21148 -91.1315 -53.834 77.9014 -19.1312 14.9882 -12.2539 -0.625063 14.3515 -10.7231 2.66035 -0.136305 -5.41144 2.23511 2.41637 -1.10357 -6.13364 2.53723 0.699287 
7.51742 102.126 -5.17236 -102.54 -49.2476 -100.111 -174.658 -4.21909 90.1489 -12.4275 7.80083 1.07243 69.1954 4.61584 -6.71988 19.483 -10.1122 14.0214 173.693 -5.3528 88.1005 -11.5332 -7.56504 -1.31254 65.5108 -3.07408 1.01111 28.1039 -0.331725 4.18438 0.224456 7.94109 -90.1163 10.9922 0.393006 -0.26884 -0.678759 0.380807 -0.285888 -23.2143 0.455627 -0.138296 -3.20166 0.455629 -0.138296 86.9767 -31.4717 -112.024 40.1752 -11.2232 -4.65372 3.08821 -22.5605 -14.8568 -28.2904 -0.956654 -5.85313 -91.3645 -54.2539 77.6603 -19.05 14.3445 -12.9449 -0.362419 15.462 -10.3835 1.86469 -0.150128 -5.97483 2.78007 2.18236 -0.263631 -6.17504 2.18814 0.269058 
7.52947 102.163 -5.17209 -102.524 -49.2109 -100.082 -174.558 -4.17642 90.2817 -12.6873 7.71238 0.984051 70.2041 4.4059 -9.54789 20.6295 -11.4289 19.6459 173.732 -5.64769 88.1442 -10.9461 -7.78447 -1.36084 65.2384 -3.06938 0.819765 28.3143 -0.353561 3.86724 0.221363 7.92746 -90.0972 11.02 0.39566 -0.231223 -0.650923 0.385093 -0.248414 -23.1865 0.446868 -0.101624 -3.17387 0.446851 -0.101619 86.7294 -31.9743 -112.269 39.7134 -11.5533 -4.53957 3.2179 -23.023 -15.0664 -28.6132 -1.04474 -5.58099 -91.0336 -53.7819 78.0302 -19.3377 14.5909 -12.9359 -0.500752 15.4628 -10.2511 1.75411 -0.158815 -6.26388 2.96993 2.22542 -0.636706 -6.38029 2.28683 0.403073 
7.55235 102.19 -5.17856 -102.646 -49.1154 -100.151 -174.555 -4.2079 90.2769 -12.9199 7.83679 1.00244 70.2005 4.25623 -9.88064 21.0007 -11.5741 20.7266 173.756 -5.7801 88.15 -10.8324 -7.68216 -1.4016 65.2065 -3.04322 1.01144 28.1154 -0.331542 4.15689 0.239906 7.92186 -90.1024 11.0186 0.430172 -0.245043 -0.652266 0.418955 -0.263728 -23.188 0.483929 -0.10442 -3.17531 0.483906 -0.104425 86.92 -31.9715 -111.909 39.731 -11.8027 -4.68022 3.35945 -22.5275 -14.799 -27.5188 -0.803842 -6.5937 -90.9984 -53.7991 78.0843 -19.2838 14.7832 -13.0143 -0.657702 15.3354 -10.1097 2.20176 -0.161038 -6.14085 3.0052 2.23243 -0.502243 -6.18809 2.28097 0.147697 
7.57162 102.177 -5.17808 -102.787 -48.9871 -100.174 -174.471 -4.38276 90.279 -12.6374 7.70658 0.973199 69.4596 4.71474 -6.53122 19.845 -9.74392 13.7664 173.766 -5.81289 88.1906 -10.9727 -7.84703 -1.39683 65.2373 -3.04481 0.950518 28.1548 -0.322282 3.99803 0.246683 7.91837 -90.1101 11.0153 0.440014 -0.261585 -0.655607 0.428096 -0.280717 -23.1913 0.498308 -0.117246 -3.17865 0.498295 -0.117256 86.8752 -32.0352 -111.966 39.7328 -11.8235 -4.56358 3.09396 -22.532 -15.0453 -26.8236 -0.765923 -6.78396 -90.9523 -53.796 78.1495 -19.4991 14.4851 -12.8899 -0.48311 15.7154 -10.1124 2.37763 -0.178468 -6.49019 3.27973 2.11929 -0.477236 -6.54259 2.17404 -0.0611672 
7.59566 102.174 -5.18356 -102.857 -49.013 -100.243 -174.473 -4.32926 90.2564 -12.8602 7.82212 0.97815 69.8117 4.95133 -6.31207 18.8369 -10.3767 13.5009 173.761 -5.91947 88.1681 -10.8471 -7.70998 -1.41112 65.2984 -3.09423 1.10053 28.0296 -0.314958 4.22795 0.238667 7.91646 -90.1231 11.0032 0.418059 -0.285503 -0.667748 0.405104 -0.303637 -23.2034 0.484538 -0.146663 -3.19071 0.484543 -0.146653 86.9415 -31.8481 -111.923 39.8757 -11.7785 -4.47619 2.98592 -22.6731 -15.2988 -26.6855 -0.799957 -6.65717 -91.0469 -53.8386 78.0234 -19.3409 14.8033 -12.9534 -0.66721 15.2162 -10.1655 2.05073 -0.171013 -6.45292 3.31664 2.06632 -0.29947 -6.40343 2.09642 -0.182982 
7.60602 102.18 -5.19122 -102.933 -49.0423 -100.219 -174.389 -4.30401 90.3574 -12.8721 7.84646 0.950101 69.212 4.85305 -5.21372 19.3306 -8.95553 10.7862 173.81 -6.0304 88.2588 -10.7112 -7.5904 -1.40545 65.1981 -3.0303 1.14999 28.0259 -0.30979 4.19766 0.218797 7.91664 -90.1427 11.0059 0.36934 -0.319865 -0.665049 0.354928 -0.335812 -23.2005 0.448403 -0.194072 -3.18784 0.44841 -0.194057 86.8386 -31.758 -112.158 39.9457 -11.5993 -4.37816 3.00516 -22.7689 -15.1488 -26.8612 -0.82008 -6.57836 -91.1188 -54.0141 77.9584 -19.2046 14.7624 -12.8199 -0.615948 15.1487 -10.293 2.01003 -0.165338 -6.35761 3.17481 2.10176 -0.173727 -6.23997 2.11166 -0.229137 
7.6201 102.179 -5.18463 -102.881 -48.8948 -100.185 -174.42 -4.45548 90.3424 -12.8361 7.73609 0.963823 71.0405 5.38313 -7.54918 17.0371 -12.6783 15.7423 173.866 -6.05959 88.2657 -10.6199 -7.75852 -1.4923 65.1836 -3.03668 1.10056 28.1257 -0.327637 4.10471 0.227289 7.92011 -90.1314 11.0305 0.391566 -0.299078 -0.640373 0.378063 -0.316033 -23.1759 0.463354 -0.16757 -3.16325 0.463385 -0.167558 86.7064 -32.0011 -112.3 39.7992 -11.4918 -4.21002 3.20093 -22.8081 -15.2581 -26.6847 -0.827108 -6.55245 -91.0753 -53.727 77.9586 -19.5052 15.176 -12.632 -0.754004 13.8097 -10.4721 2.2083 -0.159374 -6.10419 3.08438 2.07326 -0.469091 -6.33586 2.12991 -0.146021 
7.61782 102.185 -5.16119 -103.043 -48.7798 -100.322 -174.42 -4.55253 90.3131 -12.7346 7.5629 0.96452 69.5987 4.71372 -6.76409 19.7117 -9.91903 13.968 173.823 -6.17172 88.2027 -10.6654 -7.8589 -1.51031 65.2691 -3.05808 1.17729 28.0139 -0.302014 4.16667 0.227583 7.93044 -90.1308 11.0134 0.392416 -0.297905 -0.657468 0.378955 -0.314891 -23.193 0.46381 -0.16619 -3.18035 0.463815 -0.166192 86.8073 -31.8648 -112.17 40.0444 -11.4794 -4.22967 3.13143 -22.4938 -15.2307 -26.4616 -0.787844 -6.6704 -90.9577 -53.5592 78.0911 -19.7857 14.8792 -12.725 -0.643588 14.5373 -10.2838 2.18917 -0.158917 -6.08691 2.98267 2.0521 -0.430774 -6.35629 2.10156 -0.120775 
7.63429 102.189 -5.11815 -103.012 -48.6729 -100.268 -174.388 -4.62967 90.2496 -12.7243 7.46229 0.942685 69.8042 5.31779 -4.94777 17.613 -9.77091 9.80804 173.784 -6.1609 88.176 -10.6902 -8.13373 -1.49518 65.2005 -3.04129 1.00772 28.0569 -0.318764 4.1943 0.232294 7.93185 -90.1401 11.0081 0.397625 -0.316885 -0.662794 0.383289 -0.334083 -23.1983 0.474463 -0.182733 -3.18565 0.474477 -0.182738 86.8871 -31.8205 -112.039 40.0538 -11.6786 -4.34077 3.23426 -22.2933 -14.8589 -26.8403 -0.729627 -6.8954 -90.9666 -53.6251 78.0924 -19.7408 15.0711 -12.7664 -0.750553 13.9283 -10.3137 2.44893 -0.158952 -6.00097 3.03267 1.986 -0.277332 -6.3867 2.02046 -0.365348 
7.61213 102.182 -5.08729 -102.987 -48.5631 -100.27 -174.411 -4.65915 90.151 -12.6195 7.28154 0.946374 69.0328 5.33969 -2.96085 17.4703 -7.88618 4.67269 173.836 -6.10908 88.1711 -10.8223 -8.07502 -1.56933 65.2689 -3.03633 1.13634 28.0546 -0.319198 4.20236 0.238963 7.9325 -90.1421 11.0028 0.409929 -0.322026 -0.668173 0.395347 -0.339748 -23.2037 0.48776 -0.18393 -3.19106 0.487751 -0.18393 86.9123 -31.915 -111.949 39.9301 -11.7553 -4.37637 3.58145 -22.6253 -14.667 -27.0603 -0.750902 -6.87045 -91.0367 -53.6647 78.0003 -19.6109 14.9087 -12.9212 -0.735929 14.6872 -10.0617 2.59537 -0.181342 -6.47326 3.03221 2.03232 -0.36558 -6.38812 2.06773 -0.0273107 
7.58456 102.233 -5.05781 -102.878 -48.4786 -100.118 -174.371 -4.36157 90.1338 -13.3811 6.93453 0.939845 68.8539 4.9132 -3.16717 18.4599 -7.397 5.00697 173.832 -6.4336 88.2148 -10.0574 -8.29608 -1.53897 64.8915 -3.01451 1.01836 28.1503 -0.32824 4.05231 0.244608 7.93805 -90.159 10.9987 0.413287 -0.355875 -0.67227 0.397227 -0.373726 -23.2078 0.501132 -0.215212 -3.19514 0.501142 -0.215212 86.9918 -31.7088 -111.889 40.0775 -11.8106 -4.40617 3.32848 -22.8169 -14.7504 -27.0397 -0.835519 -6.50744 -90.9674 -53.6841 78.1038 -19.6058 15.1634 -12.9598 -0.752614 14.2217 -10.3682 3.00509 -0.17953 -6.26462 3.14682 2.08043 -0.180261 -6.33866 2.0901 -0.177212 
7.5593 102.231 -5.02077 -102.774 -48.5256 -100.149 -174.522 -4.51081 89.9682 -13.1521 7.80273 1.03946 68.6909 5.07473 -2.5807 18.8495 -7.35499 5.55608 173.769 -6.23614 88.1155 -10.3915 -8.37111 -1.53979 65.1827 -3.1114 0.901338 27.8471 -0.24077 4.08805 0.244446 7.91898 -90.1496 11.0365 0.417346 -0.337711 -0.634414 0.40209 -0.355754 -23.17 0.499554 -0.196662 -3.15731 0.499549 -0.196673 86.8897 -31.6305 -112.118 40.2453 -11.7313 -4.0676 2.78564 -22.8038 -15.0527 -26.8567 -0.83812 -6.50216 -90.9533 -53.6948 78.1266 -19.7863 14.5757 -12.9779 -0.504518 15.6393 -10.0537 2.55234 -0.166272 -6.13135 2.9783 2.04466 -0.200617 -6.17789 2.05808 -0.184342 
7.57559 102.21 -4.996 -102.557 -48.5876 -100.088 -174.61 -4.39078 89.8417 -12.9296 7.19751 1.02035 68.8636 5.07397 -3.10182 17.804 -8.07103 5.71907 173.713 -6.00725 87.9905 -10.5219 -8.27231 -1.53737 65.22 -3.08368 1.10373 28.0912 -0.310667 4.05606 0.250168 7.90859 -90.1516 11.0573 0.427674 -0.342345 -0.6136 0.412172 -0.361469 -23.1492 0.510995 -0.197711 -3.13653 0.510986 -0.197708 87.0082 -31.4718 -111.964 40.2681 -11.8801 -3.9943 2.87117 -22.4241 -15.2031 -26.9444 -0.842055 -6.37445 -91.1985 -53.8313 77.8048 -19.6931 14.4974 -12.8631 -0.470755 15.6092 -10.1466 2.48091 -0.163532 -6.08807 3.03183 2.03228 0.0135697 -6.20393 2.00939 -0.155413 
7.47606 102.166 -4.95364 -102.532 -48.5886 -100.04 -174.546 -4.59561 89.9907 -12.426 7.2401 0.994037 69.0804 5.3327 -3.23235 17.6465 -8.09456 5.51828 173.724 -5.8505 88.0389 -10.9409 -8.26383 -1.50722 65.4276 -3.12665 1.00057 28.1055 -0.345351 4.28331 0.248921 7.91263 -90.1494 11.0492 0.426183 -0.335909 -0.621728 0.410895 -0.356771 -23.1573 0.508183 -0.191797 -3.14467 0.508176 -0.191799 86.8252 -31.5222 -112.289 40.2672 -11.5193 -4.02307 3.02126 -22.7501 -15.0541 -27.0245 -0.873995 -6.30448 -91.1445 -53.8309 77.8821 -19.7195 14.3931 -12.7977 -0.385617 15.5546 -10.1902 2.268 -0.153789 -5.92862 3.06444 2.06164 -0.231121 -6.22674 2.07166 0.0397298 
7.3568 102.159 -4.92648 -102.485 -48.5703 -100.017 -174.401 -4.561 90.0927 -12.6281 7.32027 0.869859 69.0586 5.29135 -3.21587 18.3803 -7.73825 5.79966 173.694 -5.8142 88.0302 -11.0921 -8.15829 -1.46411 65.606 -3.19885 1.17633 28.1101 -0.325586 4.1246 0.256688 7.90574 -90.1533 11.063 0.439881 -0.347563 -0.607909 0.424162 -0.366534 -23.1435 0.523984 -0.199311 -3.13087 0.523972 -0.19933 86.9826 -31.4501 -112.022 40.3676 -11.651 -4.17346 3.13859 -22.7151 -15.0185 -26.9434 -0.832405 -6.50349 -91.2504 -54.226 77.8168 -19.189 14.9746 -12.6478 -0.703503 14.2039 -10.4484 2.60577 -0.138058 -5.46616 2.70394 2.08643 -0.0678551 -5.79553 2.07214 -0.037635 
7.19448 102.132 -4.85695 -102.301 -48.791 -99.7768 -174.219 -4.31367 90.3721 -13.025 8.11223 0.794888 69.1213 5.39818 -3.00336 18.9627 -7.34898 5.73459 173.533 -5.754 88.0881 -11.1253 -8.43832 -1.18461 65.667 -3.34521 0.691564 28.196 -0.365711 4.23117 0.257109 7.89223 -90.1542 11.0901 0.440331 -0.349376 -0.580858 0.424525 -0.368424 -23.1165 0.524961 -0.200895 -3.10381 0.524971 -0.200884 87.041 -31.6789 -111.809 40.4182 -11.5532 -4.26883 3.35195 -22.6669 -14.8229 -26.7392 -0.750459 -6.89837 -91.2829 -54.0573 77.7339 -19.2359 14.8284 -12.5621 -0.667867 14.261 -10.374 2.47036 -0.139499 -5.52817 2.58785 2.07073 -0.498207 -5.82009 2.11333 0.351504 
6.9312 102.174 -4.85758 -102.14 -48.662 -99.5447 -174.011 -4.01719 90.6376 -13.7176 7.646 0.716449 67.948 4.34205 -3.5102 22.2715 -5.17055 5.34309 173.54 -5.65683 88.2609 -11.4333 -8.56416 -1.06292 65.9303 -3.59039 0.660885 27.7161 -0.187209 3.987 0.283925 7.8983 -90.1612 11.0781 0.490422 -0.368168 -0.592835 0.473732 -0.389409 -23.1286 0.578402 -0.203749 -3.11593 0.578404 -0.203752 86.8133 -31.9021 -112.142 40.1961 -11.3087 -4.12494 3.32983 -21.8712 -14.7989 -26.3365 -0.53942 -7.74933 -91.1858 -53.8175 77.82 -19.4769 14.5379 -12.5982 -0.523165 14.5341 -10.2367 2.3857 -0.147118 -5.74648 2.835 2.056 -0.436553 -5.73779 2.09289 0.240675 
